<svg width="65" height="63" viewBox="0 0 65 63" fill="none" xmlns="http://www.w3.org/2000/svg">
<rect y="13" width="39.65" height="13" fill="#338CFB"/>
<rect x="13.75" y="24" width="12" height="26" fill="#338CFB"/>
<rect x="1.00507" y="1" width="12.549" height="12.2" stroke="#222222" stroke-width="2"/>
<rect x="1.00507" y="25.4" width="12.549" height="12.2" stroke="#222222" stroke-width="2"/>
<rect x="26.1031" y="25.4" width="12.549" height="12.2" stroke="#222222" stroke-width="2"/>
<rect x="51.2011" y="25.4" width="12.549" height="12.2" stroke="#222222" stroke-width="2"/>
<rect x="1.00507" y="37.6" width="12.549" height="12.2" stroke="#222222" stroke-width="2"/>
<rect x="26.1031" y="37.6" width="12.549" height="12.2" stroke="#222222" stroke-width="2"/>
<rect x="51.2011" y="37.6" width="12.549" height="12.2" stroke="#222222" stroke-width="2"/>
<rect x="1.00507" y="49.8" width="12.549" height="12.2" stroke="#222222" stroke-width="2"/>
<rect x="26.1031" y="49.8" width="12.549" height="12.2" stroke="#222222" stroke-width="2"/>
<rect x="51.2011" y="49.8" width="12.549" height="12.2" stroke="#222222" stroke-width="2"/>
<rect x="13.5541" y="49.8" width="12.549" height="12.2" stroke="#222222" stroke-width="2"/>
<rect x="38.6521" y="49.8" width="12.549" height="12.2" stroke="#222222" stroke-width="2"/>
<rect x="13.5541" y="1" width="12.549" height="12.2" stroke="#222222" stroke-width="2"/>
<rect x="26.1031" y="1" width="12.549" height="12.2" stroke="#222222" stroke-width="2"/>
</svg>
