<svg width="22" height="20" viewBox="0 0 22 20" fill="none" xmlns="http://www.w3.org/2000/svg">
<path d="M16.9 20H5.79998V7.2L12.75 0L13.725 0.775C13.825 0.858333 13.9 0.975 13.95 1.125C14 1.275 14.025 1.45833 14.025 1.675V1.925L12.9 7.2H20.375C20.775 7.2 21.125 7.35 21.425 7.65C21.725 7.95 21.875 8.3 21.875 8.7V10.75C21.875 10.8667 21.8875 10.9875 21.9125 11.1125C21.9375 11.2375 21.925 11.3583 21.875 11.475L18.725 18.725C18.575 19.075 18.3291 19.375 17.9875 19.625C17.6458 19.875 17.2833 20 16.9 20ZM7.29998 18.5H17.225L20.375 11.025V8.7H11.05L12.375 2.475L7.29998 7.825V18.5ZM7.29998 7.825V18.5V7.825ZM5.79998 7.2V8.7H2.47498V18.5H5.79998V20H0.974976V7.2H5.79998Z" fill="#F8F8F8"/>
</svg>
